HIERARCHY
ROOT Hips
{
    OFFSET 0.000000 0.000000 0.000000
    CHANNELS 6 Xposition Yposition Zposition Zrotation Xrotation Yrotation
    JOINT Spine
    {
        OFFSET -0.000000 7.246840 0.000000
        CHANNELS 3 Zrotation Xrotation Yrotation
        JOINT Spine1
        {
            OFFSET -0.000000 20.289354 0.000000
            CHANNELS 3 Zrotation Xrotation Yrotation
            JOINT Neck
            {
                OFFSET -0.000000 20.206032 1.836912
                CHANNELS 3 Zrotation Xrotation Yrotation
                JOINT Head
                {
                    OFFSET -0.000000 12.372654 -1.767522
                    CHANNELS 3 Zrotation Xrotation Yrotation
                    End Site
                    {
                        OFFSET -0.000000 22.094025 0.000000
                    }
                }
            }
            JOINT LeftShoulder
            {
                OFFSET 3.465871 17.201674 -0.568930
                CHANNELS 3 Zrotation Xrotation Yrotation
                JOINT LeftArm
                {
                    OFFSET 14.070313 0.000000 0.000000
                    CHANNELS 3 Zrotation Xrotation Yrotation
                    JOINT LeftForeArm
                    {
                        OFFSET 26.549477 0.000000 0.000000
                        CHANNELS 3 Zrotation Xrotation Yrotation
                        JOINT LeftHand
                        {
                            OFFSET 18.880413 0.000000 0.000000
                            CHANNELS 3 Zrotation Xrotation Yrotation
                            End Site
                            {
                                OFFSET 13.256415 0.000000 0.000000
                            }
                        }
                    }
                }
            }
            JOINT RightShoulder
            {
                OFFSET -3.526370 17.201674 -0.568930
                CHANNELS 3 Zrotation Xrotation Yrotation
                JOINT RightArm
                {
                    OFFSET -14.070313 0.000000 0.000000
                    CHANNELS 3 Zrotation Xrotation Yrotation
                    JOINT RightForeArm
                    {
                        OFFSET -26.549477 0.000000 0.000000
                        CHANNELS 3 Zrotation Xrotation Yrotation
                        JOINT RightHand
                        {
                            OFFSET -18.880413 0.000000 0.000000
                            CHANNELS 3 Zrotation Xrotation Yrotation
                            End Site
                            {
                                OFFSET -13.256415 0.000000 0.000000
                            }
                        }
                    }
                }
            }
        }
    }
    JOINT LeftUpLeg
    {
        OFFSET 8.837609 0.000000 0.000000
        CHANNELS 3 Zrotation Xrotation Yrotation
        JOINT LeftLeg
        {
            OFFSET -0.000000 -41.345005 0.000000
            CHANNELS 3 Zrotation Xrotation Yrotation
            JOINT LeftFoot
            {
                OFFSET -0.000000 -35.500874 0.000000
                CHANNELS 3 Zrotation Xrotation Yrotation
                JOINT LeftToeBase
                {
                    OFFSET -0.000000 -5.744446 13.256415
                    CHANNELS 3 Zrotation Xrotation Yrotation
                    End Site
                    {
                        OFFSET -0.000000 0.000000 3.535044
                    }
                }
            }
        }
    }
    JOINT RightUpLeg
    {
        OFFSET -8.837609 0.000000 0.000000
        CHANNELS 3 Zrotation Xrotation Yrotation
        JOINT RightLeg
        {
            OFFSET -0.000000 -41.345005 0.000000
            CHANNELS 3 Zrotation Xrotation Yrotation
            JOINT RightFoot
            {
                OFFSET -0.000000 -35.500874 0.000000
                CHANNELS 3 Zrotation Xrotation Yrotation
                JOINT RightToeBase
                {
                    OFFSET -0.000000 -5.744446 13.256415
                    CHANNELS 3 Zrotation Xrotation Yrotation
                    End Site
                    {
                        OFFSET -0.000000 0.000000 3.535044
                    }
                }
            }
        }
    }
}
MOTION
Frames:    11
Frame Time:    0.010000
-4.197789    82.414452    32.882015    6.939025    -2.582280    2.639251    -4.429615    -3.505652    1.589698    -4.968198    18.724360    2.544959    3.177642    25.293438    -6.999651    7.525057    -30.238403    -4.006240    8.204797    -0.669922    4.769831    -69.521454    50.387424    -20.837309    5.521698    -15.522760    -23.237940    -41.117805    -12.493873    -5.290157    -1.711863    -1.034755    19.113667    67.036453    52.239861    12.646071    -9.499697    -6.585371    21.720278    27.228821    -1.177479    14.757957    -6.223036    -14.481876    -3.543226    -0.110514    22.486816    -5.572980    2.532355    -1.146174    -7.134950    -0.696798    -11.200647    1.051469    -6.265534    -2.606697    -2.389160    3.126780    10.225700    4.419088    -4.247713    -7.635823    -10.197944    -0.020783    0.190788    0.037195    
-4.128031    82.414261    33.243561    6.878204    -2.547392    2.551244    -4.357437    -3.649155    1.670584    -4.983836    18.841740    2.636925    3.140920    25.202082    -7.066927    7.643824    -30.174135    -4.039257    8.170766    -0.621728    4.799619    -69.393501    50.925564    -20.936302    5.884014    -15.836491    -23.010618    -41.286861    -12.654173    -5.528943    -1.700352    -1.091590    19.172001    66.751495    52.316746    12.894364    -9.517591    -6.640300    22.091791    27.327740    -1.155273    14.872660    -6.326675    -14.330233    -4.060398    -0.060538    20.771276    -5.472400    2.673709    -0.652837    -7.073398    -0.665431    -10.844741    1.001462    -6.278169    -2.377396    -2.443032    3.166178    10.186460    4.184295    -3.029555    -8.388704    -10.567308    -1.537993    1.701268    2.708481    
-4.056976    82.407379    33.603973    6.814617    -2.516179    2.486483    -4.306201    -3.754592    1.720570    -4.982512    18.899910    2.691629    3.042623    25.161720    -7.058238    7.879316    -30.153036    -3.947722    8.183750    -0.627192    4.836273    -69.753494    50.264751    -20.634487    5.473458    -15.363290    -22.982975    -41.096020    -12.337901    -5.338151    -1.668433    -1.149044    19.236252    66.456505    52.576187    13.143424    -9.498969    -6.874797    22.478903    27.160126    -1.355499    14.991695    -6.408115    -14.153652    -4.569452    -0.018199    19.271748    -5.112927    2.947648    -0.368285    -7.198533    -0.681668    -9.966491    1.019256    -6.279860    -2.148657    -2.515744    3.185548    10.183719    4.232654    -3.878806    -8.081226    -9.776923    -0.266020    0.494422    0.474534    
-3.984179    82.377800    33.992813    6.667724    -2.569850    2.420820    -4.183940    -3.830693    1.757505    -4.941316    19.009165    2.725337    3.020457    25.103191    -7.066241    7.914147    -30.105253    -3.949113    8.145241    -0.631947    4.907904    -70.009720    50.179115    -20.352133    5.483584    -15.270191    -22.970034    -41.043465    -12.285342    -5.228001    -1.664122    -1.209948    19.286215    66.151237    52.851212    13.438095    -9.471614    -7.131449    22.820803    26.884296    -1.600465    15.106604    -6.409122    -13.830282    -4.982733    0.067137    17.770655    -4.925790    3.043439    0.063182    -7.225974    -0.735747    -9.195441    1.093972    -6.197278    -1.813741    -2.543712    3.219949    10.155624    4.105507    -3.818206    -8.312380    -9.643479    -0.350129    0.015540    0.627784    
-3.894490    82.356407    34.365387    6.579485    -2.542179    2.362270    -4.139622    -3.949246    1.792025    -4.880559    19.059464    2.754687    2.997467    25.041143    -7.083952    7.981107    -30.020313    -3.950586    8.154853    -0.564931    4.948835    -70.075951    50.191425    -20.422411    5.424116    -15.170121    -22.641438    -40.891830    -12.204172    -5.269575    -1.650778    -1.237810    19.279749    65.938782    52.974899    13.619875    -9.457348    -7.263382    23.217014    26.543688    -1.691401    15.350122    -6.472980    -13.585490    -5.444323    0.165930    16.457726    -4.769487    2.999820    0.488884    -7.050666    -0.779586    -8.493648    1.153357    -6.180940    -1.596511    -2.606612    3.223487    10.204412    4.136893    -2.795356    -9.078921    -10.072182    -0.692420    0.539750    1.234533    
-3.811161    82.335854    34.740673    6.504378    -2.501680    2.307187    -4.166010    -4.079175    1.804414    -4.742792    19.094725    2.751010    2.969280    25.005795    -7.056269    7.993930    -29.978601    -3.922978    8.140432    -0.529820    5.034645    -70.351593    50.237442    -20.200840    5.506220    -15.166433    -22.545120    -40.826340    -12.237711    -5.145266    -1.672872    -1.274643    19.282938    65.779388    53.155487    13.819876    -9.506891    -7.351512    23.597601    26.150900    -1.800477    15.317816    -6.528328    -13.302202    -5.917620    -0.041352    15.191823    -3.515679    2.580037    0.933738    -7.835097    -1.076361    -7.656764    1.583057    -6.156873    -1.397699    -2.647721    3.191412    10.251253    3.924035    -2.648130    -9.360038    -9.845360    -1.215133    0.988284    2.156080    
-3.725354    82.306854    35.121239    6.413791    -2.445387    2.240212    -4.207018    -4.227567    1.809267    -4.549160    19.108326    2.730751    2.920408    24.992979    -7.052706    7.964279    -29.924967    -3.939186    8.111844    -0.489375    5.090586    -70.520775    49.900639    -20.197237    5.141740    -14.813285    -22.170218    -40.437229    -12.016372    -5.066664    -1.725893    -1.289015    19.236649    65.623772    53.388561    14.034502    -9.592510    -7.526499    24.053391    25.720045    -2.033403    15.087840    -6.553978    -13.067227    -6.067254    0.117657    14.259232    -3.720599    2.661604    1.331310    -7.194201    -0.965579    -6.938067    1.413099    -6.116390    -1.221769    -2.565910    3.174666    10.314734    3.723548    -2.306253    -9.729080    -9.690772    -1.660042    1.544923    2.928128    
-3.666375    82.273430    35.520657    6.341893    -2.336864    2.183971    -4.361591    -4.462841    1.794706    -4.295204    19.121214    2.688538    2.911062    25.009167    -6.995383    7.929841    -29.881784    -3.896374    8.120127    -0.403411    5.189740    -70.861542    49.966507    -19.924652    5.247898    -14.853580    -22.092260    -40.298309    -12.104516    -4.907267    -1.739018    -1.240654    19.167995    65.523605    53.445042    14.187911    -9.647280    -7.558314    24.524309    25.170349    -2.092708    15.070179    -6.524005    -12.842170    -6.177233    -0.192592    13.364354    -2.895218    2.433622    2.095993    -7.391232    -0.911008    -6.760684    1.331622    -6.040771    -1.097088    -2.656761    3.039263    10.416142    3.571785    -1.919980    -10.129029    -9.470068    -1.659702    1.589718    2.926159    
-3.560112    82.238625    35.915192    6.239537    -2.230149    2.145625    -4.367516    -4.690717    1.766263    -4.144166    19.123583    2.643678    2.919683    25.027845    -6.939478    7.824031    -29.817425    -3.883045    8.135606    -0.352605    5.238748    -71.220749    49.966213    -19.657619    5.242989    -14.814383    -21.918043    -40.035511    -12.123921    -4.802154    -1.773982    -1.151489    19.059095    65.340958    53.573734    14.465408    -9.718276    -7.701085    24.919693    24.581776    -2.260179    15.103409    -6.524065    -12.620462    -6.299705    -0.304526    12.675222    -2.499959    2.227275    2.879462    -7.408403    -0.969095    -6.348185    1.412554    -5.985749    -0.981800    -2.705941    2.946218    10.532114    3.346583    -1.575069    -10.476498    -9.161744    -1.576038    1.531615    2.780382    
-3.455301    82.200340    36.314392    6.145723    -2.114732    2.071660    -4.395480    -4.927785    1.739424    -4.011143    19.102283    2.603907    2.981506    25.084555    -6.910474    7.667882    -29.794281    -3.909068    8.191557    -0.274357    5.318614    -71.671097    49.856998    -19.370920    5.271178    -14.719318    -21.695419    -39.924358    -12.088338    -4.660698    -1.771145    -1.140909    18.982361    65.352280    53.711430    14.563336    -9.794347    -7.785217    25.158525    23.861723    -2.331006    15.454261    -6.479815    -12.382958    -6.310305    -0.310277    12.137426    -2.786734    2.110287    3.713457    -6.907619    -1.009332    -5.834783    1.466118    -5.942285    -0.895127    -2.763535    2.834502    10.780896    3.972798    -1.515020    -10.828187    -9.623655    -1.489643    1.200271    2.637151    
-3.364476    82.181725    36.749310    5.927756    -2.091622    2.053486    -4.362148    -5.143103    1.690300    -3.770303    19.128443    2.521832    3.045312    25.168293    -6.864300    7.479464    -29.789616    -3.927622    8.233186    -0.224329    5.357938    -72.091919    49.935688    -19.041567    5.294130    -14.733207    -21.536186    -39.731464    -12.144640    -4.574760    -1.828147    -1.088125    18.872799    65.440720    53.759865    14.565772    -9.871716    -7.807288    25.636650    23.152695    -2.407577    15.383738    -6.321918    -12.013517    -6.108613    -0.480190    11.741344    -2.406638    2.927572    4.480451    -7.436498    -1.057876    -5.123745    1.529373    -5.726134    -0.679119    -2.934091    2.657170    10.933666    3.947328    -1.200345    -11.167682    -9.369783    -1.421131    0.992995    2.521395    
